<svg xmlns="http://www.w3.org/2000/svg" viewBox="0 0 500 600">
  <!-- Mapa do Brasil simplificado mas realista -->
  <path d="M 248 45 L 260 43 L 272 44 L 283 47 L 293 52 L 302 58 L 310 66 L 317 75 L 323 85 L 328 96 L 332 108 L 335 120 L 337 133 L 338 146 L 338 159 L 337 172 L 335 184 L 332 196 L 328 207 L 323 218 L 317 228 L 310 237 L 302 245 L 293 252 L 283 258 L 272 263 L 260 267 L 248 270 L 235 272 L 222 273 L 209 273 L 196 272 L 184 270 L 172 267 L 161 263 L 150 258 L 140 252 L 131 245 L 123 237 L 116 228 L 110 218 L 105 207 L 101 196 L 98 184 L 96 172 L 95 159 L 95 146 L 96 133 L 98 120 L 101 108 L 105 96 L 110 85 L 116 75 L 123 66 L 131 58 L 140 52 L 150 47 L 161 44 L 172 43 L 184 43 L 196 44 L 209 45 L 222 47 L 235 48 Z M 350 120 L 360 125 L 368 132 L 375 140 L 380 150 L 384 161 L 386 173 L 387 186 L 386 199 L 384 211 L 380 222 L 375 232 L 368 240 L 360 247 L 350 252 L 339 256 L 327 258 L 315 258 L 303 256 L 292 252 L 282 247 L 273 240 L 266 232 L 260 222 L 256 211 L 254 199 L 253 186 L 254 173 L 256 161 L 260 150 L 266 140 L 273 132 L 282 125 L 292 120 L 303 116 L 315 114 L 327 114 L 339 116 Z M 280 300 L 290 305 L 298 312 L 305 320 L 310 330 L 314 341 L 316 353 L 317 366 L 316 379 L 314 391 L 310 402 L 305 412 L 298 420 L 290 427 L 280 432 L 269 436 L 257 438 L 245 438 L 233 436 L 222 432 L 212 427 L 203 420 L 196 412 L 190 402 L 186 391 L 184 379 L 183 366 L 184 353 L 186 341 L 190 330 L 196 320 L 203 312 L 212 305 L 222 300 L 233 296 L 245 294 L 257 294 L 269 296 Z M 210 480 L 220 485 L 228 492 L 235 500 L 240 510 L 244 521 L 246 533 L 247 546 L 246 559 L 244 571 L 240 582 L 235 592 L 228 600 L 220 607 L 210 612 L 199 616 L 187 618 L 175 618 L 163 616 L 152 612 L 142 607 L 133 600 L 126 592 L 120 582 L 116 571 L 114 559 L 113 546 L 114 533 L 116 521 L 120 510 L 126 500 L 133 492 L 142 485 L 152 480 L 163 476 L 175 474 L 187 474 L 199 476 Z" 
        fill="none" 
        stroke="currentColor" 
        stroke-width="2"/>
</svg>
